<mxfile host="65bd71144e">
    <diagram id="cPa3KvFaKKLf2Ra8UxAx" name="Page-1">
        <mxGraphModel dx="1154" dy="1627" grid="1" gridSize="10" guides="1" tooltips="1" connect="1" arrows="1" fold="1" page="1" pageScale="1" pageWidth="850" pageHeight="1100" math="0" shadow="0">
            <root>
                <mxCell id="0"/>
                <mxCell id="1" parent="0"/>
                <mxCell id="11" style="edgeStyle=none;html=1;exitX=0.5;exitY=1;exitDx=0;exitDy=0;entryX=0.5;entryY=0;entryDx=0;entryDy=0;fontSize=20;endArrow=open;endFill=0;startArrow=open;startFill=0;endSize=15;startSize=15;" edge="1" parent="1" source="2" target="3">
                    <mxGeometry relative="1" as="geometry"/>
                </mxCell>
                <mxCell id="2" value="Network Application Programming Interface" style="rounded=1;whiteSpace=wrap;html=1;fontSize=20;strokeColor=#000000;fillColor=#d80073;fontColor=#ffffff;" vertex="1" parent="1">
                    <mxGeometry x="280" y="260" width="240" height="60" as="geometry"/>
                </mxCell>
                <mxCell id="3" value="Operating System" style="rounded=1;whiteSpace=wrap;html=1;fontSize=20;strokeColor=#000000;fillColor=#a20025;fontColor=#ffffff;" vertex="1" parent="1">
                    <mxGeometry x="280" y="370" width="240" height="40" as="geometry"/>
                </mxCell>
                <mxCell id="12" style="edgeStyle=orthogonalEdgeStyle;html=1;exitX=0.5;exitY=1;exitDx=0;exitDy=0;entryX=0.25;entryY=0;entryDx=0;entryDy=0;fontSize=20;startArrow=open;startFill=0;endArrow=open;endFill=0;startSize=15;endSize=15;" edge="1" parent="1" source="4" target="2">
                    <mxGeometry relative="1" as="geometry"/>
                </mxCell>
                <mxCell id="4" value="A" style="ellipse;whiteSpace=wrap;html=1;aspect=fixed;fontSize=20;strokeColor=#000000;fillColor=#0050ef;fontColor=#ffffff;" vertex="1" parent="1">
                    <mxGeometry x="200" y="140" width="60" height="60" as="geometry"/>
                </mxCell>
                <mxCell id="13" style="edgeStyle=orthogonalEdgeStyle;html=1;exitX=0.5;exitY=1;exitDx=0;exitDy=0;entryX=0.5;entryY=0;entryDx=0;entryDy=0;fontSize=20;startArrow=open;startFill=0;endArrow=open;endFill=0;startSize=15;endSize=15;" edge="1" parent="1" source="7" target="2">
                    <mxGeometry relative="1" as="geometry"/>
                </mxCell>
                <mxCell id="7" value="B&lt;span style=&quot;color: rgba(0 , 0 , 0 , 0) ; font-family: monospace ; font-size: 0px&quot;&gt;%3CmxGraphModel%3E%3Croot%3E%3CmxCell%20id%3D%220%22%2F%3E%3CmxCell%20id%3D%221%22%20parent%3D%220%22%2F%3E%3CmxCell%20id%3D%222%22%20value%3D%22A%22%20style%3D%22ellipse%3BwhiteSpace%3Dwrap%3Bhtml%3D1%3Baspect%3Dfixed%3BfontSize%3D20%3B%22%20vertex%3D%221%22%20parent%3D%221%22%3E%3CmxGeometry%20x%3D%22170%22%20y%3D%22170%22%20width%3D%2260%22%20height%3D%2260%22%20as%3D%22geometry%22%2F%3E%3C%2FmxCell%3E%3C%2Froot%3E%3C%2FmxGraphModel%3E&lt;/span&gt;" style="ellipse;whiteSpace=wrap;html=1;aspect=fixed;fontSize=20;strokeColor=#000000;fillColor=#0050ef;fontColor=#ffffff;" vertex="1" parent="1">
                    <mxGeometry x="300" y="120" width="60" height="60" as="geometry"/>
                </mxCell>
                <mxCell id="14" style="edgeStyle=orthogonalEdgeStyle;html=1;exitX=0.5;exitY=1;exitDx=0;exitDy=0;entryX=0.75;entryY=0;entryDx=0;entryDy=0;fontSize=20;startArrow=open;startFill=0;endArrow=open;endFill=0;startSize=15;endSize=15;" edge="1" parent="1" source="8" target="2">
                    <mxGeometry relative="1" as="geometry"/>
                </mxCell>
                <mxCell id="8" value="C" style="ellipse;whiteSpace=wrap;html=1;aspect=fixed;fontSize=20;strokeColor=#000000;fillColor=#0050ef;fontColor=#ffffff;" vertex="1" parent="1">
                    <mxGeometry x="400" y="130" width="60" height="60" as="geometry"/>
                </mxCell>
                <mxCell id="15" style="edgeStyle=orthogonalEdgeStyle;html=1;exitX=0.5;exitY=1;exitDx=0;exitDy=0;fontSize=20;startArrow=open;startFill=0;endArrow=open;endFill=0;startSize=15;endSize=15;" edge="1" parent="1" source="9">
                    <mxGeometry relative="1" as="geometry">
                        <mxPoint x="460" y="260" as="targetPoint"/>
                    </mxGeometry>
                </mxCell>
                <mxCell id="9" value="D" style="ellipse;whiteSpace=wrap;html=1;aspect=fixed;fontSize=20;strokeColor=#000000;fillColor=#0050ef;fontColor=#ffffff;" vertex="1" parent="1">
                    <mxGeometry x="480" y="100" width="60" height="60" as="geometry"/>
                </mxCell>
                <mxCell id="16" style="edgeStyle=orthogonalEdgeStyle;html=1;exitX=0.5;exitY=1;exitDx=0;exitDy=0;fontSize=20;startArrow=open;startFill=0;endArrow=open;endFill=0;startSize=15;endSize=15;" edge="1" parent="1" source="10">
                    <mxGeometry relative="1" as="geometry">
                        <mxPoint x="460" y="260" as="targetPoint"/>
                    </mxGeometry>
                </mxCell>
                <mxCell id="10" value="E" style="ellipse;whiteSpace=wrap;html=1;aspect=fixed;fontSize=20;strokeColor=#000000;fillColor=#0050ef;fontColor=#ffffff;" vertex="1" parent="1">
                    <mxGeometry x="560" y="140" width="60" height="60" as="geometry"/>
                </mxCell>
                <mxCell id="17" value="" style="shape=curlyBracket;whiteSpace=wrap;html=1;rounded=1;flipH=1;fontSize=20;rotation=-90;" vertex="1" parent="1">
                    <mxGeometry x="500" y="-20" width="20" height="210" as="geometry"/>
                </mxCell>
                <mxCell id="18" value="Application spawns several processes using network" style="text;html=1;strokeColor=none;fillColor=none;align=center;verticalAlign=middle;whiteSpace=wrap;rounded=0;fontSize=20;" vertex="1" parent="1">
                    <mxGeometry x="350" y="30" width="310" height="30" as="geometry"/>
                </mxCell>
            </root>
        </mxGraphModel>
    </diagram>
</mxfile>